<svg xmlns="http://www.w3.org/2000/svg" width="512" height="512" viewBox="0 0 512 512" version="1.1">
	<path d="M 90.073 34.635 C 88.073 37.177, 88 38.406, 88 69.635 C 88 87.519, 87.608 102, 87.123 102 C 86.641 102, 81.860 100.650, 76.500 99 C 64.205 95.215, 60.815 95.148, 58.073 98.635 L 56 101.270 56 231.961 L 56 362.651 58.338 364.848 C 59.700 366.128, 67.943 369.471, 78.088 372.858 L 95.500 378.672 95.750 394.086 C 95.893 402.910, 96.475 410.415, 97.110 411.640 C 98.334 413.999, 101.997 416, 105.093 416 C 107.849 416, 112 420.398, 112 423.320 C 112 427.195, 108.372 430.917, 103.896 431.633 C 101.378 432.035, 99.219 433.177, 97.968 434.768 C 96.169 437.054, 96 438.886, 96 456.046 L 96 474.822 99.077 477.411 C 100.769 478.835, 102.681 479.998, 103.327 479.996 C 103.972 479.994, 133.075 470.622, 168 459.168 L 231.500 438.344 235.814 442.757 C 241.720 448.797, 247.850 451.432, 256 451.432 C 264.156 451.432, 270.285 448.795, 276.186 442.748 L 280.500 438.326 344 459.178 C 383.013 471.988, 408.357 479.826, 409.722 479.503 C 410.945 479.213, 412.857 477.996, 413.972 476.799 C 415.859 474.774, 416 473.326, 416 455.922 C 416 434.545, 415.637 433.444, 407.978 431.557 C 402.175 430.127, 399.323 426.352, 400.623 421.820 C 401.584 418.467, 404.210 416.556, 409.283 415.516 C 414.831 414.378, 415.453 412.462, 416 394.827 L 416.500 378.711 434.741 372.559 C 446.315 368.655, 453.522 365.693, 454.459 364.453 C 455.744 362.754, 455.941 345.507, 455.968 231.885 L 456 101.270 453.927 98.635 C 451.191 95.156, 447.871 95.221, 435.951 98.982 C 430.753 100.623, 425.938 101.973, 425.250 101.982 C 424.275 101.996, 424 94.870, 424 69.635 C 424 38.406, 423.927 37.177, 421.927 34.635 C 420.474 32.788, 418.905 31.994, 416.677 31.981 C 414.930 31.971, 378.094 42.599, 334.820 55.600 L 256.140 79.236 177.320 55.608 C 133.969 42.612, 97.070 31.984, 95.323 31.989 C 93.089 31.997, 91.530 32.783, 90.073 34.635 M 104 186.227 L 104 321.612 175.750 343.130 L 247.500 364.647 247.792 356.699 C 247.953 352.328, 247.884 348.550, 247.638 348.305 C 247.392 348.059, 219.646 339.594, 185.979 329.494 C 141.194 316.058, 124.127 310.529, 122.383 308.890 L 120 306.651 120 191.961 C 120 77.445, 120.003 77.266, 122.073 74.635 C 123.555 72.751, 125.074 72, 127.406 72 C 129.200 72, 156.917 79.875, 189 89.500 C 221.083 99.125, 247.503 107, 247.712 107 C 247.921 107, 247.958 103.974, 247.796 100.275 L 247.500 93.550 178.500 72.822 C 140.550 61.421, 108.263 51.812, 106.750 51.467 L 104 50.841 104 186.227 M 335 72.332 L 264.500 93.544 264.204 100.272 C 264.042 103.972, 264.079 107, 264.288 107 C 264.497 107, 290.917 99.125, 323 89.500 C 355.083 79.875, 382.800 72, 384.594 72 C 386.926 72, 388.445 72.751, 389.927 74.635 C 391.997 77.266, 392 77.445, 392 191.946 C 392 323.751, 393.280 309.340, 381.251 312.929 C 324.830 329.761, 264.712 347.955, 264.362 348.305 C 264.116 348.550, 264.047 352.328, 264.208 356.699 L 264.500 364.647 336.250 343.130 L 408 321.612 408 186.306 C 408 78.696, 407.744 51.012, 406.750 51.060 C 406.063 51.093, 373.775 60.665, 335 72.332 M 72 234.419 L 72 353.838 152.468 380.654 L 232.935 407.469 236.718 403.789 C 247.531 393.269, 264.469 393.269, 275.282 403.789 L 279.065 407.469 359.532 380.654 L 440 353.838 440 234.302 C 440 120.935, 439.910 114.793, 438.250 115.267 C 437.288 115.542, 433.688 116.568, 430.250 117.547 L 424 119.328 424 224.975 C 424 347.090, 425.510 333.210, 411.774 337.371 C 407.223 338.749, 370.314 349.827, 329.753 361.989 L 256.007 384.100 174.387 359.616 C 113.980 341.494, 92.149 334.549, 90.384 332.891 L 88 330.651 88 224.980 L 88 119.308 80.586 117.154 C 76.509 115.969, 72.909 115, 72.586 115 C 72.264 115, 72 168.739, 72 234.419 M 249.304 413.956 C 245.750 416.123, 243.319 422.150, 244.347 426.247 C 246.853 436.232, 259.993 438.602, 265.713 430.102 C 272.969 419.321, 260.549 407.100, 249.304 413.956" stroke="none" fill="black" fill-rule="evenodd"/>
</svg>